<!--?xml version="1.0" standalone="no"?-->
              <svg id="sw-js-blob-svg" viewBox="0 0 100 100" xmlns="http://www.w3.org/2000/svg" version="1.1">
                    <defs> 
                        <linearGradient id="sw-gradient" x1="0" x2="1" y1="1" y2="0">
                            <stop id="stop1" stop-color="rgba(248, 117, 55, 1)" offset="0%"></stop>
                            <stop id="stop2" stop-color="rgba(221, 114, 48, 1)" offset="100%"></stop>
                        </linearGradient>
                    </defs>
                <path fill="url(#sw-gradient)" d="M21.4,-29.8C27.5,-25.1,32,-18.5,36,-10.7C39.9,-2.8,43.4,6.2,40.7,12.9C38.1,19.6,29.4,24,21.6,28.5C13.8,33,6.9,37.5,-1.2,39.2C-9.3,40.9,-18.6,39.6,-26.1,35C-33.5,30.5,-39.2,22.5,-40.3,14.2C-41.4,5.9,-38,-2.7,-35.4,-11.7C-32.7,-20.7,-30.7,-30,-24.9,-34.8C-19.1,-39.6,-9.5,-39.8,-0.9,-38.6C7.7,-37.3,15.3,-34.5,21.4,-29.8Z" width="100%" height="100%" transform="translate(50 50)" stroke-width="0" style="transition: all 0.3s ease 0s;"></path>
              </svg>